<svg xmlns="http://www.w3.org/2000/svg" viewBox="0 0 390 780" role="img" aria-label="Ridgeline Roofing mobile preview placeholder">
  <rect width="390" height="780" rx="34" fill="#fafaf7" stroke="#d6d2c5"/>
  <rect x="140" y="16" width="110" height="14" rx="7" fill="#e5e3dc"/>
  <rect x="26" y="52" width="110" height="16" rx="5" fill="#f4b142"/>
  <rect x="320" y="48" width="44" height="26" rx="7" fill="#f4b142"/>
  <rect x="26" y="96" width="338" height="200" rx="12" fill="#fef3da"/>
  <rect x="48" y="130" width="240" height="22" rx="8" fill="#0b1220" opacity="0.82"/>
  <rect x="48" y="164" width="200" height="12" rx="6" fill="#64748b" opacity="0.55"/>
  <rect x="48" y="186" width="170" height="12" rx="6" fill="#64748b" opacity="0.45"/>
  <rect x="48" y="226" width="160" height="38" rx="10" fill="#f4b142"/>
  <rect x="26" y="324" width="338" height="110" rx="12" fill="#fff" stroke="#e5e3dc"/>
  <rect x="26" y="452" width="338" height="110" rx="12" fill="#fff" stroke="#e5e3dc"/>
  <rect x="48" y="348" width="110" height="12" rx="6" fill="#f4b142"/>
  <rect x="48" y="372" width="260" height="10" rx="5" fill="#cbd5e1"/><rect x="48" y="392" width="220" height="10" rx="5" fill="#e2e8f0"/>
  <rect x="48" y="476" width="110" height="12" rx="6" fill="#f4b142"/>
  <rect x="48" y="500" width="260" height="10" rx="5" fill="#cbd5e1"/><rect x="48" y="520" width="220" height="10" rx="5" fill="#e2e8f0"/>
  <rect x="26" y="590" width="338" height="56" rx="14" fill="#f4b142"/>
  <text x="195" y="624" text-anchor="middle" font-family="'JetBrains Mono', Menlo, monospace" font-size="15" font-weight="700" fill="#0b1220">call now</text>
  <rect x="26" y="664" width="338" height="72" rx="12" fill="#0b1220"/>
  <text x="195" y="320" text-anchor="middle" font-family="'JetBrains Mono', Menlo, monospace" font-size="16" font-weight="700" fill="#0b1220">Ridgeline Roofing</text>
  <text x="195" y="764" text-anchor="middle" font-family="'JetBrains Mono', Menlo, monospace" font-size="11" fill="#94a3b8">placeholder — mobile</text>
</svg>
